<svg id="svg" version="1.1" xmlns="http://www.w3.org/2000/svg" xmlns:xlink="http://www.w3.org/1999/xlink" width="400" height="461.2546125461255" viewBox="0, 0, 400,461.2546125461255"><g id="svgg"><path id="path0" d="M99.815 57.543 L 0.185 115.073 0.185 230.627 L 0.185 346.182 99.815 403.712 C 154.613 435.354,199.696 461.242,200.000 461.242 C 200.304 461.242,245.387 435.354,300.185 403.712 L 399.815 346.182 399.815 230.627 L 399.815 115.073 300.185 57.543 C 245.387 25.901,200.304 0.013,200.000 0.013 C 199.696 0.013,154.613 25.901,99.815 57.543 M230.143 72.567 C 246.544 82.036,260.221 89.852,260.537 89.935 C 260.853 90.018,265.441 87.584,270.734 84.526 C 276.026 81.468,280.567 78.967,280.824 78.967 C 281.081 78.967,285.665 81.496,291.010 84.586 L 300.728 90.206 300.825 101.820 L 300.923 113.434 326.476 128.183 L 352.030 142.931 352.030 230.636 L 352.030 318.340 276.719 361.845 C 235.298 385.773,201.043 405.495,200.598 405.671 C 199.917 405.940,187.592 398.951,123.879 362.165 L 47.970 318.338 47.970 230.635 L 47.970 142.932 123.708 99.170 C 165.364 75.101,199.644 55.395,199.885 55.379 C 200.126 55.363,213.742 63.098,230.143 72.567 M103.922 148.345 C 95.091 150.586,90.063 156.815,90.042 165.540 C 90.020 174.643,94.581 180.237,106.089 185.222 C 117.524 190.175,120.099 192.518,119.380 197.314 C 118.450 203.517,108.001 205.530,96.878 201.649 C 94.841 200.938,93.038 200.317,92.873 200.270 C 92.527 200.172,88.577 210.381,88.806 210.780 C 88.889 210.926,90.533 211.549,92.459 212.166 C 105.884 216.466,120.585 214.870,126.931 208.423 C 132.959 202.299,133.840 191.536,128.884 184.561 C 126.192 180.772,123.641 179.110,112.430 173.838 C 102.940 169.376,100.329 165.375,104.101 161.078 C 107.054 157.715,117.183 157.571,124.454 160.789 C 125.625 161.307,126.634 161.666,126.696 161.585 C 126.758 161.505,127.359 159.945,128.032 158.118 C 128.705 156.292,129.561 154.010,129.935 153.048 L 130.613 151.299 129.091 150.523 C 123.939 147.895,110.333 146.717,103.922 148.345 M161.648 148.003 C 146.244 151.025,137.345 164.869,138.542 183.948 C 139.711 202.591,148.258 212.742,164.195 214.415 C 170.971 215.126,182.548 212.967,183.928 210.735 C 184.378 210.005,181.784 200.684,181.187 200.889 C 180.879 200.994,179.382 201.522,177.860 202.061 C 172.151 204.083,164.976 203.643,160.568 201.001 C 148.540 193.791,148.701 166.733,160.810 160.555 C 165.149 158.341,173.542 158.053,178.990 159.930 C 180.991 160.619,180.691 161.092,182.091 155.035 L 183.280 149.889 180.662 149.125 C 175.610 147.650,166.260 147.099,161.648 148.003 M322.219 153.881 C 319.426 155.579,321.705 160.009,324.525 158.362 C 325.504 157.791,325.646 157.502,325.646 156.089 C 325.646 153.787,324.056 152.763,322.219 153.881 M325.168 158.918 L 323.583 159.873 323.692 162.108 C 323.800 164.337,323.805 164.346,325.501 165.340 L 327.202 166.338 328.914 165.271 L 330.627 164.205 330.627 162.027 L 330.627 159.849 328.993 158.891 C 327.019 157.734,327.132 157.734,325.168 158.918 " stroke="none" fill="#3a1b73" fill-rule="evenodd"></path><path id="path1" d="M222.232 116.006 L 217.710 118.635 217.803 123.978 L 217.897 129.321 222.140 131.803 C 227.305 134.824,226.397 134.826,231.625 131.783 L 235.978 129.250 236.075 123.942 L 236.173 118.635 233.677 117.251 C 232.304 116.489,230.185 115.306,228.967 114.622 L 226.753 113.377 222.232 116.006 M263.343 120.574 L 260.517 122.206 260.525 125.587 L 260.533 128.967 263.351 130.539 L 266.169 132.111 268.970 130.532 L 271.771 128.952 271.877 125.593 L 271.982 122.234 269.076 120.587 L 266.170 118.941 263.343 120.574 M252.833 132.893 L 248.339 135.490 248.350 140.900 L 248.360 146.310 252.777 148.801 C 258.048 151.773,256.867 151.776,261.993 148.778 L 266.236 146.295 266.338 140.896 L 266.440 135.497 262.095 133.014 C 259.705 131.649,257.654 130.478,257.538 130.414 C 257.422 130.349,255.305 131.465,252.833 132.893 M272.205 132.402 L 269.373 134.049 269.373 137.315 L 269.373 140.581 270.756 141.443 C 271.518 141.918,272.812 142.679,273.633 143.134 L 275.127 143.963 277.877 142.340 L 280.627 140.716 280.733 137.379 L 280.838 134.042 277.938 132.399 L 275.037 130.755 272.205 132.402 M306.192 151.208 L 301.867 153.690 301.856 159.080 L 301.845 164.470 306.181 166.978 C 311.415 170.007,310.378 170.006,315.593 166.987 L 319.926 164.478 319.923 159.084 L 319.920 153.690 315.539 151.199 C 310.288 148.213,311.411 148.212,306.192 151.208 M330.334 152.617 L 328.749 153.567 328.858 155.843 L 328.967 158.118 330.665 159.015 L 332.364 159.912 334.078 158.907 L 335.793 157.902 335.793 155.720 L 335.793 153.537 334.193 152.599 C 332.233 151.450,332.282 151.450,330.334 152.617 M320.910 154.490 C 320.573 154.827,320.598 157.480,320.941 157.692 C 321.093 157.786,321.218 157.049,321.218 156.053 C 321.218 155.058,321.204 154.244,321.187 154.244 C 321.170 154.244,321.046 154.354,320.910 154.490 M325.646 156.089 C 325.646 157.065,325.770 157.786,325.923 157.692 C 326.075 157.598,326.199 156.876,326.199 156.089 C 326.199 155.301,326.075 154.579,325.923 154.485 C 325.770 154.391,325.646 155.113,325.646 156.089 M330.623 162.068 C 330.524 163.429,330.576 164.408,330.740 164.244 C 330.903 164.079,330.984 162.966,330.919 161.770 L 330.803 159.594 330.623 162.068 M254.106 176.705 L 252.377 177.675 252.480 179.889 L 252.583 182.103 254.264 182.991 L 255.945 183.879 257.694 182.854 L 259.444 181.829 259.334 179.776 C 259.227 177.765,259.190 177.703,257.530 176.729 L 255.834 175.735 254.106 176.705 M283.579 243.769 C 273.410 245.874,267.717 254.140,269.312 264.480 C 270.469 271.980,274.607 276.043,286.498 281.356 C 296.115 285.652,298.524 287.716,298.524 291.659 C 298.524 298.991,287.488 301.491,275.027 296.983 C 271.099 295.561,271.776 295.059,269.508 301.070 C 267.343 306.806,267.240 306.312,270.849 307.514 C 278.431 310.038,290.679 310.712,296.793 308.942 C 305.504 306.421,310.118 300.931,310.915 292.139 C 311.756 282.852,307.028 276.464,295.543 271.372 C 283.085 265.848,280.178 263.079,281.943 258.419 C 283.787 253.553,293.066 252.418,302.459 255.908 C 303.846 256.424,305.133 256.883,305.318 256.928 C 305.503 256.974,306.524 254.723,307.588 251.926 L 309.522 246.842 308.175 246.155 C 303.086 243.564,290.477 242.340,283.579 243.769 M92.989 276.568 L 92.989 308.856 99.262 308.856 L 105.535 308.856 105.535 276.568 L 105.535 244.280 99.262 244.280 L 92.989 244.280 92.989 276.568 M118.081 276.568 L 118.081 308.856 138.376 308.856 L 158.672 308.856 158.672 303.325 L 158.672 297.795 144.557 297.698 L 130.443 297.601 130.348 270.941 L 130.253 244.280 124.167 244.280 L 118.081 244.280 118.081 276.568 M165.314 276.568 L 165.314 308.856 185.609 308.856 L 205.904 308.856 205.904 303.321 L 205.904 297.786 191.882 297.786 L 177.860 297.786 177.860 271.033 L 177.860 244.280 171.587 244.280 L 165.314 244.280 165.314 276.568 M212.635 268.727 C 212.740 290.595,212.820 293.400,213.390 295.324 C 216.315 305.189,223.453 309.656,236.347 309.692 C 247.128 309.721,253.452 306.501,256.968 299.191 C 259.572 293.777,259.524 294.327,259.681 267.989 L 259.823 244.280 253.897 244.280 L 247.970 244.280 247.963 265.406 C 247.954 290.634,247.715 292.932,244.771 296.006 C 241.191 299.745,232.073 299.659,228.136 295.849 C 225.251 293.057,225.290 293.428,225.171 267.435 L 225.066 244.280 218.791 244.280 L 212.516 244.280 212.635 268.727 " stroke="none" fill="#684884" fill-rule="evenodd"></path><path id="path2" d="M124.077 99.202 L 48.339 142.976 48.339 230.639 L 48.339 318.301 124.170 362.082 L 200.001 405.863 275.831 362.080 L 351.661 318.298 351.661 230.637 L 351.661 142.975 326.197 128.276 L 300.733 113.576 290.781 119.335 L 280.829 125.095 270.857 119.337 L 260.886 113.579 260.886 102.071 L 260.886 90.563 230.566 73.049 C 213.890 63.416,200.149 55.511,200.031 55.482 C 199.912 55.452,165.733 75.126,124.077 99.202 M226.568 79.664 C 228.213 80.663,228.230 80.693,228.337 82.902 L 228.446 85.132 226.437 86.184 L 224.427 87.236 222.638 86.132 C 220.876 85.045,220.847 84.996,220.739 82.962 L 220.630 80.895 222.400 79.772 C 224.546 78.410,224.505 78.411,226.568 79.664 M251.313 87.692 L 259.422 92.359 259.323 101.946 L 259.225 111.534 251.218 116.144 L 243.211 120.754 235.074 116.063 L 226.937 111.371 226.937 101.900 L 226.937 92.430 234.963 87.752 C 239.377 85.179,243.038 83.063,243.097 83.050 C 243.156 83.037,246.854 85.126,251.313 87.692 M221.587 96.655 L 225.277 98.812 225.379 103.380 L 225.482 107.949 221.792 110.063 C 217.322 112.624,218.012 112.624,213.603 110.064 L 209.963 107.950 209.963 103.440 L 209.963 98.931 213.745 96.705 C 218.249 94.054,217.146 94.061,221.587 96.655 M231.647 115.891 L 236.162 118.499 236.162 123.939 L 236.162 129.379 231.531 132.056 L 226.899 134.734 222.213 132.032 L 217.528 129.331 217.425 124.087 L 217.323 118.843 218.717 117.933 C 221.140 116.350,226.368 113.348,226.758 113.315 C 226.964 113.298,229.164 114.457,231.647 115.891 M310.072 121.402 L 316.214 124.908 316.225 134.505 L 316.236 144.102 308.094 148.816 L 299.951 153.529 291.765 148.797 L 283.579 144.064 283.579 134.553 L 283.579 125.041 291.697 120.322 L 299.815 115.604 301.873 116.750 C 303.005 117.381,306.694 119.474,310.072 121.402 M253.690 120.429 L 256.273 121.986 256.378 125.496 L 256.483 129.005 253.679 130.609 L 250.876 132.213 249.331 131.355 C 248.481 130.884,247.163 130.110,246.402 129.635 L 245.018 128.773 245.018 125.490 L 245.018 122.206 247.878 120.531 C 251.288 118.533,250.562 118.545,253.690 120.429 M269.185 120.387 L 271.932 121.956 271.944 125.503 L 271.956 129.051 269.096 130.728 L 266.236 132.405 264.576 131.455 C 263.662 130.932,262.292 130.114,261.531 129.638 L 260.148 128.773 260.148 125.490 L 260.148 122.206 263.007 120.531 C 266.488 118.491,265.887 118.505,269.185 120.387 M242.348 132.866 L 246.863 135.473 246.851 140.891 L 246.838 146.310 242.354 148.862 C 239.887 150.266,237.682 151.415,237.454 151.415 C 237.226 151.415,235.021 150.266,232.554 148.862 L 228.070 146.310 228.057 140.891 L 228.044 135.473 232.559 132.866 C 235.043 131.432,237.245 130.258,237.454 130.258 C 237.663 130.258,239.865 131.432,242.348 132.866 M262.538 133.029 L 266.809 135.509 266.707 140.893 L 266.605 146.278 264.022 147.791 C 262.601 148.623,260.514 149.830,259.384 150.471 L 257.329 151.638 252.742 148.966 L 248.155 146.294 248.053 140.889 L 247.951 135.484 252.481 132.859 C 257.703 129.834,257.016 129.822,262.538 133.029 M278.246 132.320 L 281.181 134.013 281.181 137.297 L 281.181 140.581 279.797 141.437 C 279.036 141.907,277.663 142.724,276.746 143.251 L 275.080 144.211 272.134 142.478 L 269.188 140.745 269.083 137.387 L 268.977 134.030 271.850 132.346 C 275.357 130.292,274.734 130.294,278.246 132.320 M331.940 134.771 L 336.531 137.440 336.531 142.804 L 336.531 148.169 331.898 150.861 C 329.350 152.342,327.139 153.501,326.983 153.437 C 326.828 153.373,324.679 152.169,322.207 150.761 L 317.712 148.200 317.712 142.822 L 317.712 137.444 322.232 134.797 C 327.706 131.591,326.471 131.594,331.940 134.771 M218.105 145.031 C 219.043 145.533,219.033 147.092,218.090 147.597 C 216.494 148.451,215.072 146.257,216.513 145.163 C 217.305 144.562,217.238 144.567,218.105 145.031 M118.266 147.612 C 123.794 148.233,130.627 150.312,130.627 151.374 C 130.627 151.756,126.999 161.682,126.777 161.906 C 126.724 161.959,125.739 161.572,124.588 161.045 C 114.802 156.565,103.439 158.377,103.048 164.479 C 102.783 168.608,105.028 170.474,116.249 175.449 C 127.874 180.604,132.103 185.823,132.103 195.018 C 132.103 209.244,120.662 216.626,102.023 214.428 C 96.321 213.755,88.561 211.554,88.561 210.610 C 88.561 210.213,92.199 200.301,92.430 200.068 C 92.494 200.003,94.265 200.534,96.365 201.248 C 108.710 205.439,118.628 203.440,119.118 196.660 C 119.447 192.116,117.355 190.307,106.141 185.435 C 94.565 180.405,90.355 175.506,90.091 166.757 C 89.660 152.414,99.782 145.535,118.266 147.612 M174.179 147.617 C 178.001 148.086,183.027 149.390,183.250 149.970 C 183.382 150.314,181.560 158.795,181.014 160.377 C 180.917 160.659,180.187 160.547,178.720 160.022 C 172.074 157.647,161.960 159.150,157.742 163.139 C 150.215 170.257,149.927 189.948,157.233 197.941 C 162.574 203.785,171.846 204.811,181.222 200.596 C 181.725 200.371,182.019 201.135,183.120 205.532 L 184.423 210.736 183.632 211.253 C 177.819 215.054,164.694 215.873,156.437 212.951 C 144.145 208.601,137.985 197.065,138.487 179.336 C 139.125 156.840,152.500 144.953,174.179 147.617 M274.074 151.434 L 276.745 152.952 276.749 158.370 L 276.753 163.789 272.232 166.408 C 267.022 169.427,267.705 169.439,262.195 166.239 L 257.934 163.764 257.942 158.358 L 257.951 152.952 262.635 150.287 L 267.320 147.622 269.361 148.769 C 270.484 149.400,272.604 150.600,274.074 151.434 M315.780 151.107 L 320.289 153.690 320.292 159.105 L 320.295 164.520 315.731 167.131 C 310.256 170.263,311.537 170.266,306.051 167.108 L 301.476 164.474 301.485 159.082 L 301.494 153.690 306.190 151.016 C 308.772 149.546,310.973 148.383,311.079 148.433 C 311.185 148.483,313.301 149.686,315.780 151.107 M334.225 152.409 L 336.162 153.520 336.162 155.695 L 336.162 157.870 334.257 159.043 L 332.351 160.215 330.843 159.387 C 328.388 158.039,328.372 158.012,328.489 155.591 C 328.597 153.388,328.614 153.356,330.258 152.358 C 332.322 151.105,331.942 151.100,334.225 152.409 M326.194 156.089 C 326.194 157.621,326.087 157.810,324.809 158.539 L 323.425 159.329 322.048 158.539 C 320.780 157.811,320.671 157.619,320.671 156.089 C 320.671 154.558,320.780 154.366,322.048 153.638 L 323.425 152.848 324.809 153.638 C 326.087 154.367,326.194 154.556,326.194 156.089 M230.991 154.520 L 232.831 155.535 232.836 157.796 L 232.841 160.057 230.868 161.090 L 228.894 162.124 227.085 161.012 L 225.277 159.901 225.277 157.742 L 225.277 155.584 226.937 154.574 C 229.014 153.310,228.802 153.313,230.991 154.520 M284.287 153.730 C 285.118 154.048,285.016 155.616,284.133 156.089 C 283.110 156.636,281.919 155.951,281.919 154.815 C 281.919 153.689,282.951 153.217,284.287 153.730 M247.995 155.733 C 249.619 156.602,248.286 158.968,246.604 158.201 C 245.584 157.737,245.466 156.294,246.402 155.749 C 247.212 155.277,247.145 155.278,247.995 155.733 M239.638 156.682 C 240.506 157.015,240.400 158.934,239.497 159.221 C 237.820 159.753,236.452 157.708,237.915 156.856 C 238.685 156.408,238.874 156.389,239.638 156.682 M253.530 156.840 C 255.054 157.655,253.950 159.694,252.219 159.259 C 251.204 159.004,250.935 157.699,251.734 156.900 C 252.276 156.358,252.609 156.347,253.530 156.840 M330.915 162.064 L 331.018 164.391 329.019 165.463 L 327.021 166.534 325.226 165.433 L 323.432 164.332 323.323 162.096 L 323.214 159.859 325.165 158.733 L 327.115 157.606 328.963 158.672 L 330.812 159.737 330.915 162.064 M291.138 161.162 L 292.978 162.177 292.984 164.404 L 292.989 166.631 291.016 167.699 L 289.042 168.766 287.233 167.656 C 285.446 166.560,285.423 166.522,285.314 164.466 L 285.204 162.385 286.975 161.274 C 289.131 159.920,288.897 159.926,291.138 161.162 M250.923 162.546 C 250.923 163.632,249.882 164.295,248.976 163.788 C 248.154 163.328,248.154 161.764,248.976 161.304 C 249.882 160.797,250.923 161.460,250.923 162.546 M234.136 163.474 C 234.515 164.087,233.960 165.260,233.174 165.510 C 231.638 165.997,230.684 163.864,232.006 162.897 C 232.653 162.424,233.655 162.695,234.136 163.474 M246.679 169.004 L 246.679 171.256 244.831 172.323 L 242.982 173.390 241.048 172.273 L 239.114 171.157 239.114 169.009 L 239.114 166.861 241.052 165.754 L 242.989 164.647 244.834 165.699 L 246.679 166.752 246.679 169.004 M326.670 169.523 L 330.278 171.622 330.176 177.030 L 330.074 182.437 325.461 185.095 L 320.849 187.752 318.819 186.604 C 317.703 185.973,315.627 184.771,314.207 183.934 L 311.624 182.412 311.624 176.925 L 311.624 171.439 316.236 168.781 L 320.849 166.124 321.956 166.774 C 322.565 167.132,324.686 168.369,326.670 169.523 M255.277 168.339 C 256.453 169.516,254.995 171.277,253.506 170.480 C 252.686 170.041,252.496 168.437,253.229 168.141 C 254.047 167.811,254.823 167.886,255.277 168.339 M283.788 170.862 C 285.313 171.678,284.208 173.716,282.477 173.281 C 281.462 173.027,281.194 171.721,281.993 170.923 C 282.535 170.380,282.868 170.369,283.788 170.862 M264.231 172.707 C 265.168 173.208,265.159 174.767,264.215 175.272 C 262.619 176.126,261.198 173.932,262.638 172.838 C 263.431 172.237,263.364 172.243,264.231 172.707 M306.458 173.540 C 307.901 174.356,307.936 174.424,308.042 176.626 L 308.151 178.877 306.403 179.902 L 304.654 180.927 302.696 179.901 L 300.738 178.876 300.738 176.745 C 300.738 173.432,303.514 171.877,306.458 173.540 M294.988 173.656 C 295.733 173.941,295.745 175.412,295.008 176.024 C 294.260 176.644,292.620 175.934,292.620 174.989 C 292.620 173.744,293.673 173.151,294.988 173.656 M272.592 175.174 C 272.934 176.065,271.348 177.218,270.445 176.734 C 269.566 176.264,269.524 174.697,270.378 174.219 C 271.125 173.801,272.251 174.287,272.592 175.174 M258.026 176.760 C 259.765 177.853,259.779 177.876,259.779 179.858 L 259.779 181.856 257.862 183.035 L 255.945 184.214 253.989 183.159 L 252.032 182.103 252.031 179.859 L 252.030 177.615 253.782 176.639 C 255.958 175.428,255.901 175.426,258.026 176.760 M282.901 179.167 L 284.502 180.105 284.497 182.396 L 284.491 184.686 282.661 185.696 L 280.830 186.705 279.068 185.672 L 277.306 184.638 277.198 182.403 L 277.089 180.168 278.674 179.213 C 280.657 178.017,280.935 178.014,282.901 179.167 M293.712 179.134 C 294.692 180.315,293.253 182.129,291.974 181.324 C 290.697 180.519,291.152 178.598,292.620 178.598 C 292.976 178.598,293.468 178.839,293.712 179.134 M247.387 179.560 C 248.201 179.872,248.128 181.643,247.278 182.174 C 246.733 182.514,246.420 182.490,245.802 182.057 C 244.153 180.902,245.471 178.825,247.387 179.560 M272.110 183.619 C 272.941 183.938,272.838 185.505,271.956 185.978 C 270.933 186.525,269.742 185.840,269.742 184.704 C 269.742 183.579,270.773 183.106,272.110 183.619 M288.954 185.991 C 290.479 186.807,289.374 188.845,287.643 188.411 C 286.628 188.156,286.360 186.851,287.159 186.052 C 287.701 185.510,288.034 185.498,288.954 185.991 M301.050 243.720 C 304.618 244.418,309.213 246.034,309.461 246.679 C 309.599 247.039,306.118 257.024,305.680 257.525 C 305.610 257.605,305.321 257.477,305.038 257.242 C 303.068 255.608,295.386 254.090,290.167 254.304 C 284.470 254.538,281.919 256.428,281.919 260.413 C 281.919 264.061,284.150 265.919,293.920 270.405 C 308.803 277.241,313.521 284.530,310.520 296.054 C 307.010 309.529,288.813 314.297,268.727 307.005 C 267.130 306.426,267.066 306.709,271.175 296.208 L 271.576 295.183 273.031 295.925 C 278.726 298.830,289.778 299.782,294.129 297.741 C 296.883 296.450,297.902 294.984,298.089 292.048 C 298.380 287.487,297.102 286.398,284.988 280.881 C 272.912 275.381,268.982 270.607,268.975 261.429 C 268.966 247.003,281.748 239.946,301.050 243.720 M105.535 276.384 L 105.535 308.856 99.077 308.856 L 92.620 308.856 92.620 276.630 C 92.620 258.905,92.731 244.293,92.866 244.157 C 93.001 244.022,95.907 243.911,99.323 243.911 L 105.535 243.911 105.535 276.384 M130.537 270.752 L 130.632 297.408 144.744 297.505 L 158.856 297.601 158.958 303.229 L 159.060 308.856 138.386 308.856 L 117.712 308.856 117.712 276.630 C 117.712 258.905,117.827 244.289,117.967 244.149 C 118.107 244.009,120.971 243.940,124.332 243.995 L 130.443 244.096 130.537 270.752 M178.139 270.756 L 178.234 297.417 192.253 297.417 L 206.273 297.417 206.273 303.137 L 206.273 308.856 185.609 308.856 L 164.945 308.856 164.945 276.630 C 164.945 258.905,165.059 244.289,165.199 244.149 C 165.339 244.009,168.286 243.940,171.749 243.995 L 178.044 244.096 178.139 270.756 M225.183 266.697 C 225.347 291.517,225.367 291.770,227.482 294.821 C 230.587 299.302,240.443 299.875,244.507 295.811 C 247.416 292.902,247.369 293.341,247.591 267.159 L 247.786 244.096 253.782 243.995 L 259.779 243.893 259.779 267.353 C 259.779 293.366,259.764 293.560,257.356 298.814 C 253.729 306.731,246.740 310.219,235.240 309.854 C 222.689 309.456,215.979 304.967,213.063 295.018 C 212.425 292.842,211.744 245.942,212.328 244.420 C 212.483 244.016,213.806 243.911,218.778 243.911 L 225.034 243.911 225.183 266.697 " stroke="none" fill="#d3cbdb" fill-rule="evenodd"></path><path id="path3" d="M270.849 84.648 L 261.070 90.314 260.980 101.891 L 260.889 113.469 270.657 119.096 C 276.029 122.191,280.602 124.723,280.820 124.723 C 281.037 124.723,285.609 122.191,290.978 119.096 L 300.741 113.469 300.647 101.891 L 300.554 90.314 290.775 84.645 C 285.397 81.527,280.913 78.978,280.812 78.979 C 280.710 78.981,276.227 81.532,270.849 84.648 M247.878 120.697 L 245.387 122.176 245.391 125.571 L 245.395 128.967 248.127 130.524 L 250.860 132.081 253.651 130.524 L 256.442 128.967 256.450 125.585 L 256.458 122.204 253.842 120.696 C 250.681 118.874,250.948 118.874,247.878 120.697 M248.133 135.534 C 248.031 135.798,247.996 138.330,248.053 141.162 L 248.158 146.310 248.341 140.682 C 248.521 135.145,248.498 134.581,248.133 135.534 M266.419 140.700 L 266.603 146.310 266.707 140.988 C 266.764 138.062,266.681 135.537,266.523 135.378 C 266.365 135.220,266.319 137.615,266.419 140.700 M317.859 142.804 C 317.859 145.747,317.916 146.951,317.986 145.480 C 318.056 144.008,318.056 141.601,317.986 140.129 C 317.916 138.658,317.859 139.862,317.859 142.804 M336.309 142.804 C 336.309 145.747,336.366 146.951,336.436 145.480 C 336.506 144.008,336.506 141.601,336.436 140.129 C 336.366 138.658,336.309 139.862,336.309 142.804 M48.152 230.627 C 48.152 278.828,48.195 298.547,48.247 274.446 C 48.300 250.346,48.300 210.909,48.247 186.808 C 48.195 162.708,48.152 182.426,48.152 230.627 M351.842 230.627 C 351.842 278.828,351.885 298.547,351.937 274.446 C 351.990 250.346,351.990 210.909,351.937 186.808 C 351.885 162.708,351.842 182.426,351.842 230.627 M335.609 155.720 C 335.609 157.101,335.733 158.155,335.886 158.061 C 336.038 157.967,336.162 156.913,336.162 155.720 C 336.162 154.526,336.038 153.472,335.886 153.378 C 335.733 153.284,335.609 154.338,335.609 155.720 M282.362 153.948 C 281.305 155.005,282.769 156.819,284.102 156.105 C 285.385 155.418,284.865 153.506,283.395 153.506 C 283.070 153.506,282.605 153.705,282.362 153.948 M301.624 159.225 C 301.624 162.269,301.681 163.466,301.751 161.884 C 301.820 160.301,301.820 157.811,301.750 156.348 C 301.680 154.886,301.623 156.181,301.624 159.225 M320.074 159.225 C 320.074 162.269,320.131 163.466,320.201 161.884 C 320.270 160.301,320.270 157.811,320.200 156.348 C 320.130 154.886,320.073 156.181,320.074 159.225 M147.025 155.443 L 145.941 156.642 147.140 155.558 C 148.258 154.548,148.509 154.244,148.224 154.244 C 148.161 154.244,147.621 154.783,147.025 155.443 M238.100 156.702 C 237.312 157.020,237.538 158.959,238.394 159.231 C 239.950 159.725,240.937 157.605,239.508 156.840 C 239.115 156.629,238.741 156.471,238.677 156.487 C 238.613 156.503,238.353 156.600,238.100 156.702 M251.937 156.856 C 250.561 157.658,251.788 159.762,253.294 159.184 C 254.061 158.890,254.058 156.976,253.291 156.682 C 252.593 156.414,252.726 156.397,251.937 156.856 M248.585 161.501 C 248.095 161.991,248.355 163.451,248.995 163.793 C 249.907 164.281,250.923 163.635,250.923 162.567 C 250.923 161.504,249.315 160.771,248.585 161.501 M231.827 162.975 C 231.144 163.250,231.267 164.853,232.002 165.264 C 232.899 165.766,233.948 165.112,233.948 164.049 C 233.948 162.971,233.011 162.497,231.827 162.975 M302.675 173.681 C 301.122 174.586,301.107 174.614,301.107 176.688 L 301.108 178.782 302.872 179.773 L 304.636 180.764 306.377 179.680 C 309.056 178.013,309.025 175.233,306.311 173.708 C 305.317 173.150,304.445 172.710,304.374 172.731 C 304.302 172.751,303.538 173.179,302.675 173.681 M293.450 173.676 C 292.822 173.930,292.867 175.454,293.519 175.995 C 294.210 176.569,295.572 175.888,295.572 174.969 C 295.572 173.794,294.610 173.208,293.450 173.676 M252.080 179.591 C 252.052 180.847,252.154 181.952,252.306 182.046 C 252.458 182.140,252.534 181.444,252.475 180.500 C 252.291 177.572,252.132 177.206,252.080 179.591 M287.352 186.027 C 286.493 186.508,286.526 188.082,287.402 188.360 C 288.461 188.696,289.299 188.203,289.299 187.243 C 289.299 186.180,288.250 185.525,287.352 186.027 M292.532 243.065 C 292.991 243.154,293.655 243.150,294.008 243.058 C 294.361 242.966,293.985 242.893,293.173 242.897 C 292.362 242.902,292.073 242.977,292.532 243.065 M212.350 266.052 C 212.350 278.127,212.397 283.067,212.454 277.030 C 212.511 270.992,212.511 261.112,212.454 255.074 C 212.397 249.036,212.350 253.976,212.350 266.052 M273.063 273.178 C 273.063 273.242,273.602 273.781,274.262 274.377 L 275.461 275.461 274.377 274.262 C 273.367 273.144,273.063 272.893,273.063 273.178 M298.241 291.513 C 298.241 292.223,298.317 292.514,298.409 292.159 C 298.502 291.804,298.502 291.222,298.409 290.867 C 298.317 290.512,298.241 290.803,298.241 291.513 M285.517 299.160 C 286.176 299.242,287.256 299.242,287.915 299.160 C 288.575 299.078,288.035 299.011,286.716 299.011 C 285.397 299.011,284.857 299.078,285.517 299.160 M305.696 304.151 L 304.613 305.351 305.812 304.267 C 306.471 303.671,307.011 303.131,307.011 303.067 C 307.011 302.782,306.707 303.033,305.696 304.151 M285.517 310.233 C 286.379 310.311,287.791 310.311,288.653 310.233 C 289.516 310.156,288.810 310.092,287.085 310.092 C 285.360 310.092,284.654 310.156,285.517 310.233 " stroke="none" fill="#906eb4" fill-rule="evenodd"></path><path id="path4" d="M228.039 82.766 L 228.218 85.055 228.337 83.065 C 228.402 81.971,228.321 80.941,228.158 80.776 C 227.994 80.612,227.940 81.507,228.039 82.766 M228.192 140.775 C 228.192 143.819,228.250 145.015,228.319 143.433 C 228.388 141.851,228.388 139.360,228.318 137.898 C 228.248 136.436,228.191 137.731,228.192 140.775 M246.642 140.775 C 246.643 143.819,246.700 145.015,246.769 143.433 C 246.838 141.851,246.838 139.360,246.768 137.898 C 246.698 136.436,246.642 137.731,246.642 140.775 M258.081 158.487 C 258.082 161.531,258.139 162.728,258.208 161.145 C 258.278 159.563,258.277 157.073,258.207 155.610 C 258.137 154.148,258.081 155.443,258.081 158.487 M276.531 158.487 C 276.532 161.531,276.589 162.728,276.658 161.145 C 276.728 159.563,276.727 157.073,276.657 155.610 C 276.588 154.148,276.531 155.443,276.531 158.487 M232.587 157.749 C 232.589 158.967,232.658 159.420,232.740 158.757 C 232.822 158.094,232.820 157.098,232.736 156.543 C 232.652 155.989,232.585 156.531,232.587 157.749 M292.734 164.391 C 292.736 165.609,292.805 166.063,292.887 165.399 C 292.969 164.736,292.968 163.740,292.884 163.185 C 292.799 162.631,292.732 163.173,292.734 164.391 M246.490 169.079 C 246.391 170.440,246.444 171.419,246.607 171.255 C 246.770 171.091,246.851 169.977,246.787 168.781 L 246.670 166.605 246.490 169.079 " stroke="none" fill="#747dae" fill-rule="evenodd"></path><path id="path5" d="M222.601 79.941 C 221.052 80.876,221.033 80.911,221.039 82.971 L 221.044 85.055 222.815 86.032 L 224.587 87.008 226.314 86.032 L 228.041 85.055 228.043 82.949 C 228.045 79.643,225.463 78.216,222.601 79.941 M287.358 161.190 L 285.612 162.177 285.611 164.391 L 285.610 166.605 287.371 167.594 L 289.132 168.584 290.876 167.625 L 292.620 166.666 292.620 164.421 L 292.619 162.177 290.861 161.190 L 289.104 160.203 287.358 161.190 M241.236 165.938 L 239.483 166.914 239.483 169.007 L 239.483 171.100 241.284 172.080 L 243.085 173.060 244.790 172.108 L 246.494 171.155 246.494 169.062 C 246.494 167.170,244.505 164.786,243.066 164.954 C 243.024 164.959,242.200 165.402,241.236 165.938 M253.413 168.295 C 252.052 169.088,253.309 171.178,254.700 170.433 C 255.509 170.000,255.555 168.423,254.767 168.121 C 254.069 167.853,254.202 167.836,253.413 168.295 M270.203 174.414 C 269.479 174.706,269.646 176.304,270.428 176.552 C 271.477 176.885,272.325 176.398,272.325 175.461 C 272.325 174.408,271.377 173.940,270.203 174.414 M291.974 178.842 C 291.323 179.105,291.396 181.057,292.066 181.314 C 293.017 181.679,293.727 181.148,293.727 180.074 C 293.727 179.269,292.987 178.397,292.497 178.627 C 292.463 178.643,292.228 178.740,291.974 178.842 " stroke="none" fill="#245e28" fill-rule="evenodd"></path><path id="path6" d="M220.779 82.841 C 220.781 84.059,220.850 84.513,220.932 83.849 C 221.014 83.186,221.012 82.190,220.928 81.635 C 220.844 81.081,220.776 81.624,220.779 82.841 M234.963 87.752 L 226.937 92.430 226.937 101.900 L 226.937 111.371 235.074 116.063 L 243.211 120.754 251.218 116.144 L 259.225 111.534 259.323 101.946 L 259.422 92.359 251.313 87.692 C 246.854 85.126,243.156 83.037,243.097 83.050 C 243.038 83.063,239.377 85.179,234.963 87.752 M291.697 120.322 L 283.579 125.041 283.579 134.553 L 283.579 144.064 291.765 148.797 L 299.951 153.529 308.094 148.816 L 316.236 144.102 316.225 134.505 L 316.214 124.908 310.072 121.402 C 306.694 119.474,303.005 117.381,301.873 116.750 L 299.815 115.604 291.697 120.322 M217.490 123.985 C 217.490 126.928,217.547 128.132,217.617 126.661 C 217.687 125.189,217.687 122.781,217.617 121.310 C 217.547 119.839,217.490 121.042,217.490 123.985 M245.175 122.263 C 245.072 122.534,245.037 124.153,245.098 125.861 L 245.210 128.967 245.391 125.368 C 245.571 121.794,245.538 121.319,245.175 122.263 M260.305 122.263 C 260.201 122.534,260.166 124.153,260.227 125.861 L 260.339 128.967 260.520 125.368 C 260.700 121.794,260.667 121.319,260.305 122.263 M269.161 134.071 C 269.057 134.342,269.022 135.961,269.083 137.669 L 269.195 140.775 269.376 137.176 C 269.556 133.602,269.523 133.127,269.161 134.071 M280.809 137.194 L 280.991 140.775 281.101 137.488 C 281.162 135.679,281.080 134.068,280.919 133.907 C 280.759 133.745,280.709 135.224,280.809 137.194 M225.207 157.749 C 225.209 158.967,225.278 159.420,225.360 158.757 C 225.442 158.094,225.440 157.098,225.356 156.543 C 225.272 155.989,225.205 156.531,225.207 157.749 M168.173 158.939 C 168.833 159.020,169.912 159.020,170.572 158.939 C 171.232 158.857,170.692 158.790,169.373 158.790 C 168.054 158.790,167.514 158.857,168.173 158.939 M285.354 164.391 C 285.356 165.609,285.425 166.063,285.507 165.399 C 285.589 164.736,285.588 163.740,285.504 163.185 C 285.419 162.631,285.352 163.173,285.354 164.391 M239.360 166.667 C 239.022 167.005,239.049 171.134,239.391 171.345 C 239.543 171.439,239.668 170.370,239.668 168.968 C 239.668 167.567,239.654 166.421,239.637 166.421 C 239.620 166.421,239.496 166.531,239.360 166.667 M329.888 176.862 L 330.071 182.472 330.175 177.151 C 330.233 174.224,330.150 171.699,329.992 171.541 C 329.834 171.382,329.787 173.777,329.888 176.862 M311.587 176.937 C 311.587 179.982,311.644 181.178,311.714 179.596 C 311.783 178.014,311.783 175.523,311.713 174.061 C 311.643 172.598,311.586 173.893,311.587 176.937 M300.890 174.675 C 300.783 174.953,300.750 176.074,300.815 177.166 L 300.935 179.151 301.113 176.660 C 301.293 174.152,301.247 173.745,300.890 174.675 M259.524 179.889 C 259.526 181.107,259.595 181.561,259.677 180.897 C 259.759 180.234,259.757 179.238,259.673 178.683 C 259.589 178.129,259.522 178.672,259.524 179.889 M277.274 180.210 C 276.732 181.622,277.308 184.602,278.229 185.150 L 279.151 185.699 278.285 184.980 C 277.515 184.340,277.433 184.006,277.547 181.982 C 277.677 179.667,277.621 179.304,277.274 180.210 M281.455 186.009 C 281.098 186.217,280.616 186.269,280.383 186.125 C 280.122 185.964,280.061 186.027,280.223 186.290 C 280.570 186.852,280.892 186.827,281.756 186.174 C 282.581 185.550,282.407 185.454,281.455 186.009 M107.103 203.575 C 107.458 203.668,108.040 203.668,108.395 203.575 C 108.750 203.483,108.459 203.407,107.749 203.407 C 107.039 203.407,106.748 203.483,107.103 203.575 M92.790 244.373 C 92.693 244.626,92.658 259.280,92.711 276.937 L 92.809 309.041 92.899 276.669 L 92.989 244.298 99.354 244.188 L 105.720 244.077 99.343 243.994 C 94.518 243.932,92.923 244.024,92.790 244.373 M121.144 244.186 C 122.929 244.254,125.752 244.254,127.417 244.186 C 129.081 244.117,127.620 244.062,124.170 244.062 C 120.720 244.063,119.358 244.119,121.144 244.186 M165.118 244.364 C 165.019 244.622,164.982 259.280,165.036 276.937 L 165.133 309.041 165.223 276.661 L 165.314 244.280 171.584 244.280 L 177.855 244.280 177.953 270.756 L 178.052 297.232 178.048 270.664 L 178.044 244.096 171.671 243.995 C 166.774 243.917,165.256 244.003,165.118 244.364 M215.590 244.186 C 217.366 244.254,220.272 244.254,222.048 244.186 C 223.824 244.119,222.371 244.063,218.819 244.063 C 215.268 244.063,213.815 244.119,215.590 244.186 M250.830 244.186 C 252.505 244.254,255.244 244.254,256.919 244.186 C 258.593 244.118,257.223 244.062,253.875 244.062 C 250.526 244.062,249.156 244.118,250.830 244.186 M225.178 286.716 C 225.178 287.426,225.254 287.717,225.347 287.362 C 225.439 287.006,225.439 286.425,225.347 286.070 C 225.254 285.715,225.178 286.006,225.178 286.716 M212.263 288.930 C 212.263 289.640,212.339 289.931,212.431 289.576 C 212.524 289.220,212.524 288.639,212.431 288.284 C 212.339 287.929,212.263 288.220,212.263 288.930 M158.820 303.321 C 158.820 306.467,158.877 307.754,158.946 306.181 C 159.015 304.608,159.015 302.034,158.946 300.461 C 158.877 298.888,158.820 300.175,158.820 303.321 " stroke="none" fill="#94a7ce" fill-rule="evenodd"></path><path id="path7" d="M213.653 96.973 L 210.148 99.086 210.148 103.465 L 210.148 107.843 213.925 110.048 L 217.702 112.253 221.490 110.037 L 225.277 107.821 225.380 103.596 C 225.499 98.757,225.852 99.350,221.281 96.713 C 217.324 94.431,217.904 94.411,213.653 96.973 M232.841 132.840 L 228.598 135.349 228.501 140.829 L 228.405 146.310 232.793 148.801 C 235.207 150.171,237.304 151.292,237.454 151.292 C 237.604 151.292,239.701 150.171,242.115 148.801 L 246.503 146.310 246.406 140.831 L 246.310 135.352 241.926 132.805 C 239.515 131.404,237.440 130.275,237.314 130.294 C 237.188 130.314,235.175 131.460,232.841 132.840 M216.665 145.343 C 215.818 145.879,216.291 147.417,217.303 147.417 C 218.471 147.417,219.133 146.394,218.476 145.603 C 217.936 144.952,217.402 144.875,216.665 145.343 M262.642 150.472 L 258.310 152.952 258.306 158.370 L 258.303 163.789 262.806 166.389 L 267.308 168.990 269.355 167.843 C 270.481 167.213,272.523 166.046,273.893 165.251 L 276.384 163.805 276.381 158.379 L 276.377 152.952 271.997 150.461 C 266.750 147.478,267.874 147.477,262.642 150.472 M227.122 154.721 C 225.683 155.534,225.643 155.611,225.542 157.759 L 225.437 159.963 227.211 160.952 L 228.985 161.941 230.728 160.982 L 232.472 160.023 232.472 157.779 L 232.472 155.534 230.904 154.703 C 228.986 153.687,228.950 153.688,227.122 154.721 M246.387 155.950 C 245.916 156.421,246.113 157.850,246.679 158.067 C 247.665 158.445,248.387 157.902,248.267 156.872 C 248.157 155.921,246.988 155.349,246.387 155.950 M316.236 168.960 L 311.993 171.457 311.993 176.957 L 311.993 182.457 316.236 184.939 C 321.344 187.927,320.337 187.930,325.461 184.915 L 329.705 182.418 329.705 176.954 L 329.705 171.490 325.352 168.955 C 320.172 165.940,321.370 165.939,316.236 168.960 M282.196 170.993 C 281.345 171.639,281.375 172.574,282.261 173.048 C 283.727 173.833,284.882 172.115,283.690 170.923 C 283.142 170.374,283.003 170.381,282.196 170.993 M262.791 173.018 C 261.944 173.555,262.416 175.092,263.428 175.092 C 264.597 175.092,265.258 174.069,264.601 173.278 C 264.061 172.627,263.528 172.551,262.791 173.018 M279.059 179.217 C 277.495 180.127,277.491 180.135,277.491 182.300 L 277.491 184.471 279.139 185.437 L 280.788 186.403 282.644 185.360 L 284.501 184.317 284.501 182.385 C 284.502 180.525,284.445 180.416,282.998 179.503 C 280.924 178.193,280.829 178.187,279.059 179.217 M245.952 179.836 C 245.195 180.389,245.313 181.492,246.187 182.042 C 246.632 182.323,246.962 182.296,247.386 181.944 C 248.727 180.832,247.353 178.812,245.952 179.836 M270.540 183.719 C 269.671 184.270,270.169 185.793,271.218 185.793 C 271.909 185.793,272.171 185.573,272.265 184.913 C 272.371 184.160,271.848 183.406,271.218 183.406 C 271.116 183.406,270.811 183.547,270.540 183.719 " stroke="none" fill="#1980bd" fill-rule="evenodd"></path><path id="path8" d="M322.604 134.831 L 318.087 137.454 318.088 142.804 L 318.089 148.155 322.439 150.646 C 327.670 153.641,326.558 153.639,331.803 150.668 L 336.162 148.200 336.162 142.801 L 336.162 137.401 333.118 135.680 C 331.444 134.733,329.410 133.565,328.598 133.083 L 327.122 132.208 322.604 134.831 M110.601 147.499 C 111.256 147.580,112.418 147.582,113.184 147.502 C 113.949 147.422,113.413 147.355,111.993 147.354 C 110.572 147.352,109.946 147.417,110.601 147.499 M166.689 147.499 C 167.344 147.580,168.507 147.582,169.272 147.502 C 170.038 147.422,169.502 147.355,168.081 147.354 C 166.661 147.352,166.034 147.417,166.689 147.499 M328.464 155.606 C 328.436 156.862,328.538 157.967,328.690 158.061 C 328.842 158.155,328.918 157.459,328.859 156.515 C 328.675 153.586,328.516 153.221,328.464 155.606 M111.162 158.567 C 111.720 158.651,112.634 158.651,113.192 158.567 C 113.750 158.482,113.293 158.413,112.177 158.413 C 111.061 158.413,110.604 158.482,111.162 158.567 M323.365 161.993 C 323.365 163.312,323.432 163.851,323.514 163.192 C 323.596 162.532,323.596 161.453,323.514 160.793 C 323.432 160.134,323.365 160.673,323.365 161.993 M151.754 179.520 C 151.758 180.332,151.833 180.621,151.921 180.162 C 152.010 179.703,152.006 179.039,151.914 178.686 C 151.822 178.333,151.749 178.708,151.754 179.520 M151.754 182.472 C 151.758 183.284,151.833 183.573,151.921 183.114 C 152.010 182.655,152.006 181.991,151.914 181.638 C 151.822 181.285,151.749 181.661,151.754 182.472 M119.274 195.941 C 119.274 196.651,119.350 196.942,119.443 196.587 C 119.535 196.232,119.535 195.650,119.443 195.295 C 119.350 194.940,119.274 195.231,119.274 195.941 M290.129 243.059 C 290.484 243.152,291.065 243.152,291.421 243.059 C 291.776 242.966,291.485 242.890,290.775 242.890 C 290.065 242.890,289.774 242.966,290.129 243.059 M117.889 276.568 C 117.889 294.428,117.934 301.788,117.989 292.924 C 118.044 284.061,118.044 269.448,117.989 260.452 C 117.934 251.456,117.889 258.708,117.889 276.568 M130.439 271.033 L 130.443 297.601 144.649 297.608 L 158.856 297.615 144.744 297.512 L 130.632 297.408 130.534 270.937 L 130.436 244.465 130.439 271.033 M247.774 265.867 C 247.775 277.841,247.821 282.686,247.878 276.634 C 247.935 270.582,247.935 260.785,247.878 254.863 C 247.821 248.941,247.774 253.893,247.774 265.867 M191.872 297.691 L 205.885 297.795 206.002 303.326 L 206.118 308.857 206.103 303.229 L 206.089 297.601 191.974 297.595 L 177.860 297.588 191.872 297.691 M235.891 298.789 C 236.452 298.874,237.282 298.871,237.736 298.784 C 238.190 298.696,237.731 298.627,236.716 298.630 C 235.701 298.632,235.330 298.704,235.891 298.789 " stroke="none" fill="#8c6494" fill-rule="evenodd"></path></g></svg>